<svg id="Layer_1" data-name="Layer 1" xmlns="http://www.w3.org/2000/svg" xmlns:xlink="http://www.w3.org/1999/xlink" viewBox="0 0 512 512"><defs><linearGradient id="linear-gradient" x1="256" y1="512" x2="256" gradientUnits="userSpaceOnUse"><stop offset="0" stop-color="#458d34"/><stop offset="1" stop-color="#8bc53f"/></linearGradient></defs><title>help</title><path d="M512,412.3A99.71,99.71,0,0,1,412.3,512H99.69A99.7,99.7,0,0,1,0,412.3V99.7A99.7,99.7,0,0,1,99.69,0H412.3A99.71,99.71,0,0,1,512,99.7Z" fill="url(#linear-gradient)"/><path d="M388.18,512h17.3a71.34,71.34,0,0,0,6.78-24,73.67,73.67,0,0,0-.67-18.32c-3.26-20.28-14.22-37.4-31.69-49.51a81.15,81.15,0,0,0-20.67-10.17c9.36-9.2,15.35-21.58,16.72-36.74.15-1.74.26-3.52.29-5.31,0-.5,1.06-13.74,1.06-13.74s.82-3.63.82-3.63c.13-.42,2.5-4.82,2.5-4.82S389.2,334,389.2,334s6.18-7.63,6.18-7.63L424,290.06a143.07,143.07,0,0,0,19.28-36.85c5.48-15.81,6.75-32.93,3.84-51.12a114.84,114.84,0,0,0-29.24-60.25c-15.71-17-35.72-29.21-59.54-36.2-22.86-6.86-48.25-8.15-75.37-3.8C253.64,106.55,228.28,117,207.61,133s-35.89,35.13-45,56.62c-9.33,22.09-12.4,43.62-9.13,64,2.43,15,10.76,28.19,24.11,38.18a60.51,60.51,0,0,0,46.79,11.46c29-4.66,48.32-26.48,51.55-58.35a35.07,35.07,0,0,1,15.27-25.12c7.36-5,16.11-7.12,22.26-5.26,1.56.47,6.16,2.16,9.38,10.89-.58,2.53-3.24,9.4-16.46,25.61l-13.1,15.43-2.9,3.36-15.18,19.2a118.25,118.25,0,0,0-16.38,37.58,100.13,100.13,0,0,0-2.5,15,128.51,128.51,0,0,0,1.36,32.07c3.76,23.61,15.62,36.2,24.91,42.61a57.84,57.84,0,0,0,7.71,4,80,80,0,0,0-17.77,17,75,75,0,0,0-15.29,38.57A73.25,73.25,0,0,0,263.14,512h125Z" fill="#21632c"/><path d="M187.39,282.24a37,37,0,0,0,29.45,4.41c19.58-5,28.14-20.8,28.36-40.21a58.32,58.32,0,0,1,21.42-44.22c11.27-9.33,26.86-15.25,41.54-12.2,13.7,2.87,22.78,12.79,28,25.38,5.7,13.5-9.83,37.14-17.07,47.86-4.75,7-9.67,13.79-14.59,20.67A186.42,186.42,0,0,0,292.62,302a94.75,94.75,0,0,0-10.29,31.14c-1.93,12.54-.46,25.43,2.65,37.63,2.65,10.45,7.77,20.06,17.41,25.51a36.08,36.08,0,0,0,27.25,3.31c19.14-4.88,27.9-18.55,26.6-37.94-.18-5.29-.4-10.79-.23-16.1a41.84,41.84,0,0,1,1.11-8.39l0-.15a45.43,45.43,0,0,1,3.89-10,150.33,150.33,0,0,1,9-15C380.15,297,390.71,281.61,400.19,266A119.72,119.72,0,0,0,413.38,234c3.27-13.16,2.51-26.53-.8-39.56A91.44,91.44,0,0,0,385,148.62c-14.58-13.21-32-21.19-51.25-25-21.66-4.41-43.72-2.69-65,2.73-23.08,5.87-44.52,16-62,32.28-15.06,14-27,30.72-33.33,50.4-5.36,16.76-7.3,34.35-2.92,51.57C172.85,270.15,179.16,277.16,187.39,282.24Z" fill="#fff"/><path d="M394.61,503.57q11.94-18.86,6.67-39.5t-24.82-31.79q-19.55-11.1-40.61-5.71-21.27,5.4-33.18,24.49t-6.6,39.79A47.79,47.79,0,0,0,307.76,512h80.42A61.07,61.07,0,0,0,394.61,503.57Z" fill="#fff"/></svg>